/* XPM */
static char *_f65087343614515b39619717f55d9858S6ZoYXK1E04lqzg[] = {
/* columns rows colors chars-per-pixel */
"100 100 34 1 ",
"  c black",
". c #010101",
"X c gray4",
"o c gray7",
"O c #151515",
"+ c gray11",
"@ c gray13",
"# c #222222",
"$ c #2D2D2D",
"% c #393939",
"& c #3C3C3C",
"* c #434343",
"= c #4E4E4E",
"- c #565656",
"; c gray38",
": c #656565",
"> c #686868",
", c #727272",
"< c gray46",
"1 c gray48",
"2 c #917039",
"3 c #175184",
"4 c #05A8BF",
"5 c #04ACC3",
"6 c #00BCD4",
"7 c #0FB1DC",
"8 c #2096F3",
"9 c #18AAE2",
"0 c gray51",
"q c #939393",
"w c gray62",
"e c gray88",
"r c #EEEEEE",
"t c white",
/* pixels */
"2222222222222222222222222222222222222222222222222222222222222222222222222222222222222222222222222222",
"2222222222222222222222222222222222222222222222222222222222222222222222222222222222222222222222222222",
"22222222222222222222222222222222222222222       .   .. 222222222222222222222222222222222222222222222",
"22222222222222222222222222222222222222222              222222222222222222222222222222222222222222222",
"22222222222222222222222222222222222222222              222222222222222222222222222222222222222222222",
"22222222222222222222222222222222222222222              222222222222222222222222222222222222222222222",
"22222222222222222222222222222222222222222              222222222222222222222222222222222222222222222",
"222222222222222222222222222222222222@@@@@++++++++++++++#@@@@@@##@@@@@@222222222222222222222222222222",
"222222222222222222222222222222222222    Xwwwwwwwwwwwwww               222222222222222222222222222222",
"222222222222222222222222222222222222    Xwwwwwwwwwwwwww               222222222222222222222222222222",
"222222222222222222222222222222222222    Xwwwwwwwwwwwwww               222222222222222222222222222222",
"222222222222222222222222222222222222    Xwwwwwwwwwwwwww               222222222222222222222222222222",
"22222222222222222222222222@@@@@@@@@@%%%%&::::::::::::::%%%%%%%%%%%%%%%@@@@@2222222222222222222222222",
"22222222222222222222222222          wwwwq              wwwwwwwwwwwwwww     2222222222222222222222222",
"22222222222222222222222222          wwwwq              wwwwwwwwwwwwwww     2222222222222222222222222",
"22222222222222222222222222          wwwwq              wwwwwwwwwwwwwww     2222222222222222222222222",
"22222222222222222222222222          wwwwq              wwwwwwwwwwwwwww     2222222222222222222222222",
"22222222222222222222222222          wwwwq              wwwwwwwwwwwwwww     2222222222222222222222222",
"2222222                   wwwwwwwwwwwwwwq     wwww+    wwwwwwwwwwwwwwwwwwww    @22222222222222222222",
"2222222                   wwwwwwwwwwwwwwq     wwww+    wwwwwwwwwwwwwwwwwwww    @22222222222222222222",
"2222222                   wwwwwwwwwwwwwwq     wwww+    wwwwwwwwwwwwwwwwwwww    @22222222222222222222",
"2222222                   wwwwwwwwwwwwwwq     wwww+    wwwwwwwwwwwwwwwwwwww    @22222222222222222222",
"2222222                   wwwwwwwwwwwwwwq     wwww+    wwwwwwwwwwwwwwwwwwww    @22222222222222222222",
"22     wwwwwwwwwwwwwwwwwww                    wwwwwwwww     wwwwwwwwwwwwwwwwwww=    @222222222222222",
"22     wwwwwwwwwwwwwwwwwww                    wwwwwwwww     wwwwwwwwwwwwwwwwwww=    @222222222222222",
"22     wwwwwwwwwwwwwwwwwww                    wwwwwwwww     wwwwwwwwwwwwwwwwwww=    @222222222222222",
"22     wwwwwwwwwwwwwwwwwww                    wwwwwwwww     wwwwwwwwwwwwwwwwwww=    @222222222222222",
"22     wwwwwwwwwwwwwwwwwww                    wwwwwwwww     wwwwwwwwwwwwwwwwwww=    @222222222222222",
"2222222    wwwwwwwwwwwwwww          ttttr     wwwwwwwww     wwwwwwwwwwwwwwwwwwwwwwww@    22222222222",
"2222222    wwwwwwwwwwwwwww          ttttr     wwwwwwwww     wwwwwwwwwwwwwwwwwwwwwwww@    22222222222",
"2222222    wwwwwwwwwwwwwww          ttttr     wwwwwwwww     wwwwwwwwwwwwwwwwwwwwwwww@    22222222222",
"2222222    wwwwwwwwwwwwwww          ttttr     wwwwwwwww     wwwwwwwwwwwwwwwwwwwwwwww@    22222222222",
"2222222    wwwwwwwwwwwwwww          ttttr     wwwwwwwww     wwwwwwwwwwwwwwwwwwwwwwww@    22222222222",
"22222222222               tttttttttttttttttttt    0wwwwwwwww     wwwwwwwwwwwwwwwwwwwwwwww     222222",
"22222222222               tttttttttttttttttttt    0wwwwwwwww     wwwwwwwwwwwwwwwwwwwwwwww     222222",
"22222222222               tttttttttttttttttttt    0wwwwwwwww     wwwwwwwwwwwwwwwwwwwwwwww     222222",
"22222222222               tttttttttttttttttttt    0wwwwwwwww     wwwwwwwwwwwwwwwwwwwwwwww     222222",
"22222222222               tttttttttttttttttttt    0wwwwwwwww     wwwwwwwwwwwwwwwwwwwwwwww     222222",
"2222222222222222O    eeettttttteeeeetttttttttttttt$    wwwwwwwwww     wwwwwwwwwwwwwwwwwww     222222",
"2222222222222222O    eeettttttteeeeetttttttttttttt$    wwwwwwwwww     wwwwwwwwwwwwwwwwwww     222222",
"2222222222222222O    eeettttttteeeeetttttttttttttt$    wwwwwwwwww     wwwwwwwwwwwwwwwwwww     222222",
"2222222222222222O    eeettttttteeeeetttttttttttttt$    wwwwwwwwww     wwwwwwwwwwwwwwwwwww     222222",
"2222222222222222o    ttteetttttttttttttttttttttttt$    wwwwwwwwww     wwwwwwwwwwwwwwwwwww     222222",
"2222222222222222o    ttttttttttttttttttttttttttttt$    wwwwwwwwwwwwwww     wwwwwwwwwwwwwwwwwww     2",
"2222222222222222o    ttttttttttttttttttttttttttttt$    wwwwwwwwwwwwwww     wwwwwwwwwwwwwwwwwww     2",
"2222222222222222o    ttttttttttttttttttttttttttttt$    wwwwwwwwwwwwwww     wwwwwwwwwwwwwwwwwww     2",
"2222222222222222o    ttttttttttttttttttttttttttttt$    wwwwwwwwwwwwwww     wwwwwwwwwwwwwwwwwww     2",
"2222222222222222o    ttttttttttttttttttttttttttttt$    wwwwwwwwwwwwwww     wwwwwwwwwwwwwwwwwww     2",
"22222222222     566666666666666tttttttttttttttttttttttt     wwwwwwwwwwwwwww              wwwww     2",
"22222222222     566666666666666tttttttttttttttttttttttt     wwwwwwwwwwwwwww              wwwww     2",
"22222222222     566666666666666tttttttttttttttttttttttt     wwwwwwwwwwwwwww              wwwww     2",
"22222222222     566666666666666tttttttttttttttttttttttt     wwwwwwwwwwwwwww              wwwww     2",
"22222222222     566666666666666tttttttttttttttttttttttt     wwwwwwwwwwwwwww              wwwww     2",
"22222222222     56666666666666666666666666666666666666666666     wwwwwwwwwwwwwwwwwwwwwwww     222222",
"22222222222     56666666666666666666666666666666666666666666     wwwwwwwwwwwwwwwwwwwwwwww     222222",
"22222222222     56666666666666666666666666666666666666666666     wwwwwwwwwwwwwwwwwwwwwwww     222222",
"22222222222     56666666666666666666666666666666666666666666     wwwwwwwwwwwwwwwwwwwwwwww     222222",
"22222222222     56666666666666666666666666666666666666666666     wwwwwwwwwwwwwwwwwwwwwwww     222222",
"22222222222     5666666666666666666666666666666666666666666644444oooooXooXowwwwwwwww>ooXo     222222",
"22222222222     5666666666666666666666666666666666666666666666666          wwwwwwwww;         222222",
"22222222222     5666666666666666666666666666666666666666666666666          wwwwwwwww;         222222",
"22222222222     5666666666666666666666666666666666666666666666666          wwwwwwwww;         222222",
"22222222222     5666666666666666666666666666666666666666666666666          wwwwwwwww;         222222",
"22222222222     56666666666666666666666666666666666666666666666666666666666         -222222222222222",
"22222222222     56666666666666666666666666666666666666666666666666666666666         -222222222222222",
"22222222222     56666666666666666666666666666666666666666666666666666666666         -222222222222222",
"22222222222     56666666666666666666666666666666666666666666666666666666666         -222222222222222",
"22222222222     56666666666666666666666666666666666666666666666666666666666         -222222222222222",
"22222222222     56666666666666666666666666666666666666666666666666666666666    @***&1222222222222222",
"22222222222     56666666666666666666666666666666666666666666666666666666666    @22222222222222222222",
"22222222222     56666666666666666666666666666666666666666666666666666666666    @22222222222222222222",
"22222222222     56666666666666666666666666666666666666666666666666666666666    @22222222222222222222",
"22222222222     56666666666666666666666666666666666666666666666666666666666    @22222222222222222222",
"2222222222222222o    888886666666666666666666666666666666666666666666688888    @22222222222222222222",
"2222222222222222o    888886666666666666666666666666666666666666666666688888    @22222222222222222222",
"2222222222222222o    888886666666666666666666666666666666666666666666688888    @22222222222222222222",
"2222222222222222O    888886666666666666666666666666666666666666666666688888    @22222222222222222222",
"2222222222222222O    888886666666666666666666666666666666666666666666688888    @22222222222222222222",
"2222222222222222O    888887777777777666666666666666666666666777777777788888    @22222222222222222222",
"2222222222222222O    888888888888888666666666666666666666666888888888888888    @22222222222222222222",
"2222222222222222O    888888888888888666666666666666666666666888888888888888    @22222222222222222222",
"2222222222222222O    888888888888888666666666666666666666666888888888888888    @22222222222222222222",
"2222222222222222O    888888888888888666666666666666666666666888888888888888    @22222222222222222222",
"2222222222222222,,<<<333338888888888999999999999999999999999888888888833333@@@@@22222222222222222222",
"222222222222222222222     88888888888888888888888888888888888888888888     2222222222222222222222222",
"222222222222222222222     88888888888888888888888888888888888888888888     2222222222222222222222222",
"222222222222222222222     88888888888888888888888888888888888888888888     2222222222222222222222222",
"222222222222222222222     88888888888888888888888888888888888888888888     2222222222222222222222222",
"222222222222222222222     88888888888888888888888888888888888888888888     2222222222222222222222222",
"22222222222222222222222222          888888888888888888888888          222222222222222222222222222222",
"22222222222222222222222222          888888888888888888888888          222222222222222222222222222222",
"22222222222222222222222222          888888888888888888888888          222222222222222222222222222222",
"22222222222222222222222222          888888888888888888888888          222222222222222222222222222222",
"22222222222222222222222222          888888888888888888888888          222222222222222222222222222222",
"222222222222222222222222222222222222                        2222222222222222222222222222222222222222",
"222222222222222222222222222222222222                        2222222222222222222222222222222222222222",
"222222222222222222222222222222222222                        2222222222222222222222222222222222222222",
"222222222222222222222222222222222222                        2222222222222222222222222222222222222222",
"222222222222222222222222222222222222                        2222222222222222222222222222222222222222",
"2222222222222222222222222222222222222222222222222222222222222222222222222222222222222222222222222222"
};
