/* XPM */
static char *_83e3523d7394828f2118b6a96c53f2fpJd8ZEb6TUT084Sb[] = {
/* columns rows colors chars-per-pixel */
"100 100 15 1 ",
"  c #353535",
". c #3A3A3A",
"X c #3E3E3E",
"o c #414141",
"O c #444444",
"+ c #484848",
"@ c #4E4E4E",
"# c #515151",
"$ c #555555",
"% c #5A5A5A",
"& c #5F5F5F",
"* c gray38",
"= c gray40",
"- c gray42",
"; c #6D6D6D",
/* pixels */
"                                                                                                    ",
" @@XXXXXXXXXXX @@XXXXXXXXXXXXXXXXX @+XXXXXXXXXXXXXX @XXXXXXXXXXXXXX. @XoXXXXXXXXXXXX  @XXXXXXXXXXX  ",
" ;;+++++++++++ -;+++++++++++++++++ ;*++++++++++++++ ;@+++++++++++++X ;O+++++++++++++  ;+++++++++++. ",
" ;;+++++++++++ -;+++++++++++++++++ ;*++++++++++++++ ;@+++++++++++++X ;++++++++++++++  ;+++++++++++. ",
" ;;+++++++++++ -;+++++++++++++++++ ;&+++++++++++++O ;@+++++++++++++X ;++++++++++++++  ;O++++++++++. ",
" ;;+++++++++++ -;+++++++++++++++++ ;*O++++++++++++O ;@+++++++++++O+o ;+O+++++++++++O. ;+++++++++++. ",
" ;;;;;;;;;;;;; -;;;;;;;;;;;;;;;;;; ;;;;;;;;;;;;;;;- ;;;;;;;;;;;;;;;# ;;;;;;;;;;;;;;;. ;;;;;;;;;;;;O ",
" ;;;;;;;;;;;;; -;;;;;;;;;;;;;;;;;; ;;;;;;;;;;;;;;;- ;;;;;;;;;;;;;;;# ;;;;;;;;;;;;;;;. ;;;;;;;;;;;;O ",
"                                                                                                    ",
" OO.....  O............. OO.....X....X....  oX.....X...X... oo...X.....X... O..XX....X.....  O...X  ",
" ;;+++++  ;+++++++++++++ ;;+++++++O+++++++ o;+++O+++O++++++ &;++++++O+++++O ;+++++O++++++++. ;++O+. ",
" ;;+++++  ;+++++++++++++ ;;+++++++++++++++ o;++++++++++++++ &;++++++++++++o ;++++++++++++++  ;++++. ",
" ;;+++++  ;+++++++++++++ ;;+++++++++++++++ o;O++++++++++++O &;O+++++++++++o ;++++++++++++++. ;++++X ",
" ;;+++++  ;+++++++++++++ ;;+++++++++++++++ o;++++++++++++++ %;+++++++++O++O ;++++++++++++++  ;++++. ",
" ;;;;;;;  ;;;;;;;;;;;;#+ ;;;;;;;;;;;;;;;;; X;;;;;;;;;;;;;;; &;;;;;;;;;;;;;& ;;;;;;;;;;;;;;;X ;;;;;o ",
" ;;;;;;;  ;;;;;;;;;;;;#+ ;;;;;;;;;;;;;;;;; o;;;;;;;;;;;;;;; &;;;;;;;;;;;;-& ;;;;;;;;;;;;;;;X ;;;;;O ",
"                                                                                                    ",
" --+ X-O+OO++OO. -+OO++O+OO++O+O+O =&+OO+O+O+O+O+OO -+OOO+O++OO++O #-OOO+OO+O++OO+O+  -OO+O+O+OO+O. ",
" ;;+ o;O+++++++  ;O+++++++++++++++ ;&++++++++++++++ ;@++++++++++++ #;+++++++++++++++  ;+++++++++++. ",
" -;O o;++++++++  ;++++++++++++++++ ;*++++++++++++++ ;@++++++++++++ #;++++++++++++++O. ;+++++++++++. ",
" ;;+ X;++++++++  ;++++++++++++++oo+*%++++++++++++++ ;@++++++++++++ $;+++++++++++++++  ;+++++++++++. ",
" ;;O o;++++++++  ;++++++++++++++  ;+++++++++++++++O ;@+O++++++++++ #;+++++++++++++++  ;+++++++++++. ",
" ;;; o;;;;;;;;;. ;;;;;;;;;;;;;;;  ;;;;;;;;;;;;;;;;- ;;;;;;;;;;;;;; #;;;;;;;;;;;;;;;;. ;;;;;;;;;;;;O ",
" ;;; o;;;;;;;;;  ;;;;;;;;;;;;;;;  ;;;;;;;;;;;;;;;;- ;;;;;;;;;;;;;; #;;;;;;;;;;;;;;;;. ;;;;;;;;;;;;O ",
"                                                                                                    ",
" ;;+++++++ ;;+++++++++++ ;;+++++++++++++++ o;++++++++++++++ &;+++++++++++++++  ;+++++++++++. ;++++. ",
" ;;+++++++ ;-O++++++++++ ;;+++++++++++++++ o;++++++++++++++ &;+++++++++++++++  ;++++++++++O. ;++++. ",
" ;;+++++++ ;;+++++++++++ ;;++++++++++++++O o;++++++++++++++ &;+++++++++++++++  ;+++++++++++. ;++++. ",
" ;;+++++++ ;;+++++++++++ ;;+++++++++++++++ o;++++++++++++++.%=@O+++++++++++++X.-+++++++++++  ;++++. ",
" ;;+++++++ ;-++O++++++++ ;;++++++++++++++O o;+++++++++++++++. ;+++++++++++++ ;;O+++++++++++. ;++++. ",
" ;;;;;;;;; ;;;;;;;;;;;;; ;;;;;;;;;;;;;;;;; o;;;;;;;;;;;;;;;;O ;;;;;;;;;;;;;; ;;;;;;;;;;;;;;X ;;;;;O ",
" ;;;;;;;;; ;;;;;;;;;;;;; ;;;;;;;;;;;;;;;;; o;;;;;;;;;;;;;;;;O ;;;;;;;;;;;;;; ;;;;;;;;;;;;;;X ;;;;;O ",
"                                                                                                    ",
" ;;+ o;+++++++++O ;;++++++++++++  ;+++++++++++++++++ =;O+++++++++++++ ;;++++++++++++  ;+++++++++++. ",
" ;;+ o;++++++++++ ;;++++++++++++  ;+++++++++++++++++ =;++++++++++++++ ;;++++++++++++. ;+++++++++++. ",
" ;;+ X;++++++++++ ;;++++++++++++  ;+++++++++++++++++ -;++++++++++++++ ;;++++++++++++  ;+++++++++++. ",
" ;;.&%#++++++++++ ;;++++++++++++  ;+++++++++++++++++ =;+++++++++++++O ;;++++++++++++  ;+++++++++++. ",
" ;; ;=+++++++O+++ ;;+O+++++++O++  ;O+++++O+++++++++O =;O+++O+++++O+++ ;;+++O+++O+++O  ;++O+++++O++. ",
" ;; --;-;;;;-;;;; ;;-;;-;;;;-;;;  -;;;;;-;;-;;;;;;;; =;;;;-;;;;;-;;;; ;;;;;;;;;;;;;;. ;;--;;;;;;;;O ",
" && &&&&&&&*&&&&& &&&&&&&&&&&&&&  &&&&&&&&&&&&&&&&&& %&&&&&&&&&&&&&&* &*&&&&&&&&&&&&  &&&&&&&*&*&&o ",
"                                                                                                    ",
" ;;+++++++ ;-++++O+++++++  ;++++++++++++++ o;+++++++++++++++++ ;;++++++++++++  ;+++++++++++++ ;;+O. ",
" ;;+++++++ ;-++++++++++++  ;++++++++++++++ X;+++++++++++++++++ ;;++++++++++++  ;+++++++++++++ ;;++X ",
" ;;O++++++ ;-O+++++++++++  ;++++++++++++++ o;+++++++++++++++++ ;;++++++++++++  ;++++++++++++O ;;++. ",
" ;;+++++++ ;-++++++++++++  ;++++++++++++++ X;+++++++++++++++++ ;;++++++++++++  ;+++++++++++++ ;;++. ",
" ;;+++++++ ;-++++++++++++  ;+++O+++O++++++ o;++O+++++O++++++++ ;;O++++++++++O  ;+++++++O+++++ ;;++. ",
" ;;;;;;;;;; .;;;;;;;;;;;;  ;;;;;;;;;;;;;;; o;;;;;;;;;;;;;;;;;; ;;;;;;;;;;;;;;  ;;;;;;;;;;;;;; ;;;;O ",
" =*==*===*= .**=*==*=*===  *======*===*==* X=*===*====*=*==*=* ==*==*=*==*===  ==*=*==*===*== *=*=o ",
"                                                                                                    ",
" ;;O+O ;++++++++++  ;++++++++++++O ;*+++++++++++O+++O. ;++++++++++++++  ;+++++++++++++ ;;+++++++++. ",
" ;;++O ;++++++++++  ;+++++++++++++ ;&++++++++++++++++. ;++++++++++++++  ;+++++++++++++ ;;+++++++++. ",
" ;;++O ;++++++++++  ;+++++++++++++ ;*+++++++++++++++ =;+++++++++++++++  ;+++++++++++++ ;;+++++++++. ",
" ;;++O ;++++++++++  ;+++++++++++++ ;&+++++++++++++++ -;+++++++++++++++  ;+++++++++++++ ;;+++++++++. ",
" ;;++O ;++++++++++ .;+++++++++++++ ;*+++++++++++++++ =;+++++++++++++++  ;+++++++++++++ ;;+++++++++. ",
" ;;;;= ;;;;;;;;;;;  ;;;;;;;;;;;;;; ;;;;;;;;;;;;;;;;; =;;;;;;;;;;;;;;;;  ;;;;;;;;;;;;;; ;;;;;;;;;;;O ",
" OOOOo oOOOOOOOOOO  OOOOOOOOOOOOOO OOOOOOOOOOOOOOOOO ooOOOOOOOOOOOOOOO  OOOOOOOOOOOOOO OOOOOOOOOOO. ",
"                                                                                                    ",
" ;;++++++++ .;+++++++++++  ;++++++++++++++ o;+++++++++++++++++ ;;++++++++++++++ ;-+++++++++++ ;;++. ",
" ;;++++++++ .;+++++++++++  ;++++++++++++++ X;+++++++++++++++++ ;;++++++++++++++ ;=O++++++++++ ;;++. ",
" ;;++++++++ .;+++++++++++  ;++++++++++++++ o;+++++++++++++++++ ;;++++++++++++++ ;-+++++++++++ ;;++. ",
" ;;++++++++ .;O++++++++++  ;++++++++++++++ o;+++++++++++++++++ ;;++++++++++++++ ;-+++++++++++ ;;++. ",
" ;;++++++++ .-+++++++++++  ;++++++++++++++ o;+++++++++++++++++ ;;++++++++++++O+ ;-+++++++++++ ;;++. ",
" ;;;;;;;;;; .;;;;;;;;;#+ ;;;;;;;;;;;;;;;; ;;;;;;;;;;;;;;;;;;;; ;;;;;;;;;;;;;;;; ;;;;;;;;;;;;; ;;;;O ",
"                                                                                                    ",
"                                                                                                    ",
" ;;++O ;++++++++++ .;+++++++++++++ ;*+++++++++++++++ =;+++++++++++++++  ;+++++++++++++ ;;+++++++++. ",
" ;;++O ;++++++++++  ;+++++++++++++ ;*+++++++++++++++ =;+++++++++++++++  ;+++++++++++++ ;;+++++++++. ",
" ;;++O ;++++++++++  ;+++++++++++++ ;*+++++++++++++++ =;+++++++++++++++  ;+++++++++++++ ;;+++++++++. ",
" ;;++O ;++++++++++  ;+++++++++++++ ;*+++++++++++++++ =;+++++++++++++++  ;+++++++++++++ ;;+++++++++. ",
" ;;++O ;++++++++++ .;++++++++++++O ;*+++++++++++++++ =;+++++++++++++++  ;+++++++++++++ ;;+++++++++. ",
" ;;;;* ;;;;;;;;;;;  ;;;;;;;;;;;;;; ;;;;;;;;;;;;;;;;; =;;;;;;;;;;;;;;;;  ;;;;;;;;;;;;;; ;;;;;;;;;;;O ",
"                                                                                                    ",
"                                             .                                                      ",
" ;;++++++++++ ;++++++++++++ ;%+O+++++++++++O ;++++++++++++++. ;++++++++++++++  ;+++++++++++++ ;;++. ",
" ;;+++++++++O ;++++++++++++ ;%+++++++++++++O ;++++++++++++++. ;++++++++++++++  ;+++++++++++++ ;;++. ",
" ;;++++++++++ ;++++++++++++ ;%+++++++++++++O ;++++++++++++++X ;++++++++++++++  ;+++++++++++++ ;;++. ",
" ;;++++++++++ ;@+++++++++++ ;%O++++++++++++O ;++++++++++++++. ;++++++++++++++  ;+++++++++++++ ;;++. ",
" ;;+++++++++O ;++++++++++++ ;$+++++++++++++O ;++++++++++++++X ;O+++++++++++++  ;+++++++++++++ ;;++. ",
" ;;;;;;;;;+ .;;;;;;;;;;;;;; ;;;;;;;;;;;;;;;= ;;;;;;;;;;;;;; &-;;;;;;;;;;;;;;;  ;;;;;;;;;;;;;; ;;;;O ",
"                                                                                                    ",
"                                                                                                    ",
" ;;++o ;++++++++++++ ;#++++++++++++ +;++++++++++++++ =;+++++++++++++++  ;+++++++++++++ ;;+++++++++. ",
" ;;++O ;++++++++++++ ;#++++++++++++ +;++++++++++++++ =;+++++++++++++++  ;+++++++++++++ ;;+++++++++. ",
" ;;++O ;++++++++++++ ;@++++++++++++ +;++++++++++++++ =;+++++++++++++++  ;+++++++++++++ ;;+++++++++. ",
" ;;; o;;;;;;;;;;;;  ;;;;;;;;;;;;;;; +;;;;;;;;;;;;;;; =;;;;;;;;;;;;;;;;  ;;;;;;;;;;;;;; ;;;;;;;;;;;O ",
" ;;; o;;;;;;;;;;;; .;;;;;;;;;;;;;;; +;;;;;;;;;;;;;;; =;;;;;;;;;;;;;;;;  ;;;;;;;;;;;;;; ;;;;;;;;;;;O ",
"                                    .          .                                                    ",
" ;;++++++++ .;++++++++++++O ;%+++++++++++++O ;++++++++++++++++ ;;++++++++++++++ ;-O++++++++. ;++++. ",
" ;;++++++++ .;+++++++++++++ ;%+++++++++++++O ;@+++++++++++++++ ;;++++++++++++++ ;-+++++++++. ;++++. ",
" ;;++++++++ .;++++++++++++++ $;++++++++++++O ;++++++++++++++X ;++++++++++++++++ ;-++++++++O. ;++++. ",
" ;;++++++++ .;O+++++++++++++ $;++++++++++++O ;++++++++++++++. ;++++++++++++++++ ;-+++++++++++ ;;++. ",
" ;;++++++++ .;+++++++++O++++ $;++++O+++++++O ;+O+++++++++++OX ;O+++++++++++++++ ;=+++++++++++ ;;++. ",
" ;;;;;;;;;; .;;;;;;;;;;;;;;;;@ ;;;;;;;;;;;;= ;;;;;;;;;;;;;; &;;;;;;;;;;;;;;;;;; ;;;;;;;;;;;;; ;;;;o ",
" $$$$$#$$$#  $$$$$$$$$$$$$$$$o $$$$$$$$$$$$@ $$$#$$$$$#$$$$ +$$$$#$$$$$#$$#$$$$ #$$$$$$##$$$$ #$$$X ",
"                                                                                                    ",
" ;;++O ;+++++++++++O+OX ;O+++++O+++++O ;;++O++++++++ =;++++++++O++   ;++ ;*++++++++O+++  ;++++++ +. ",
" ;;+++.-++@++@++@++@++X.;+++@++@++@++@.-=++@++@++@++ -;++@++@++@++...;++ ;=++@++@++@++@  ;++@++@.+. ",
" ;;;;;; ;;;;;;;;;;;;; *;;;;;;;;;;;;;;;;  ;;;;;;;;;;; =;;;;;;;;;;; ;;;;;; ;;;;;;;;;;;;;;  ;;;;;;;;;O ",
"                                                                                                    ",
"                                                                                                    "
};
